<svg xmlns="http://www.w3.org/2000/svg" xmlns:svg="http://www.w3.org/2000/svg" id="svg2" width="744.094" height="1052.362" version="1.1"><metadata id="metadata7"/><g id="layer1"><rect style="fill:#73d216;fill-opacity:1;stroke:#73d216;stroke-width:.68051064;stroke-opacity:1" id="rect2834" width="19.381" height="46.609" x="126.251" y="151.274"/><path style="font-size:medium;font-style:normal;font-variant:normal;font-weight:400;font-stretch:normal;text-indent:0;text-align:start;text-decoration:none;line-height:normal;letter-spacing:normal;word-spacing:normal;text-transform:none;direction:ltr;block-progression:tb;writing-mode:lr-tb;text-anchor:start;color:#000;fill:#73d216;fill-opacity:1;stroke:#73d216;stroke-width:1px;marker:none;visibility:visible;display:inline;overflow:visible;enable-background:accumulate;font-family:Bitstream Vera Sans;-inkscape-font-specification:Bitstream Vera Sans" id="path2845" d="m 135.40625,101.40949 -0.40625,0.75 -27.09375,49.15625 -0.40625,0.75 0.84375,0 57.1875,0 0.90625,0 -0.46875,-0.78125 -30.09375,-49.15625 -0.46875,-0.71875 z m 0.0312,2 29.21875,47.65625 -55.46875,0 26.25,-47.65625 z"/><path style="fill:#73d216;fill-opacity:1;stroke:#73d216;stroke-width:.17735322;stroke-opacity:1" id="path2857" d="m 134.90478,104.12769 c -1.62694,2.37294 -2.83404,5.04418 -4.29764,7.53207 -7.0783,12.78578 -14.09254,25.60908 -21.17472,38.39133 -0.46391,1.16413 0.97284,1.49025 1.82896,1.30243 17.39321,-0.0362 34.80344,0.0897 52.18618,-0.11638 1.07728,-0.0942 0.95848,-1.44873 0.33649,-2.0315 -9.02779,-14.89995 -18.16361,-29.7358 -27.42479,-44.49461 -0.25804,-0.55721 -0.86794,-0.89476 -1.45448,-0.58334 z"/><rect style="fill:#3465a4;fill-opacity:1;stroke:#3465a4;stroke-width:.68051064000000006;stroke-opacity:1" id="rect2834-1" width="19.381" height="46.609" x="-240.567" y="-145.444" transform="scale(-1,-1)"/><path style="font-size:medium;font-style:normal;font-variant:normal;font-weight:400;font-stretch:normal;text-indent:0;text-align:start;text-decoration:none;line-height:normal;letter-spacing:normal;word-spacing:normal;text-transform:none;direction:ltr;block-progression:tb;writing-mode:lr-tb;text-anchor:start;color:#000;fill:#3465a4;fill-opacity:1;stroke:#3465a4;stroke-width:1px;marker:none;visibility:visible;display:inline;overflow:visible;enable-background:accumulate;font-family:Bitstream Vera Sans;-inkscape-font-specification:Bitstream Vera Sans" id="path2845-7" d="m 231.41227,195.30793 0.40625,-0.75 27.09375,-49.15625 0.40625,-0.75 -0.84375,0 -57.1875,0 -0.90625,0 0.46875,0.78125 30.09375,49.15625 0.46875,0.71875 z m -0.0312,-2 -29.21875,-47.65625 55.46875,0 -26.25,47.65625 z"/><path style="fill:#3465a4;fill-opacity:1;stroke:#3465a4;stroke-width:.17735322000000001;stroke-opacity:1" id="path2857-4" d="m 231.91374,192.58973 c 1.62694,-2.37294 2.83404,-5.04418 4.29764,-7.53207 7.0783,-12.78578 14.09254,-25.60908 21.17472,-38.39133 0.46391,-1.16413 -0.97284,-1.49025 -1.82896,-1.30243 -17.39321,0.0362 -34.80344,-0.0897 -52.18618,0.11638 -1.07728,0.0942 -0.95848,1.44873 -0.33649,2.0315 9.02779,14.89995 18.16361,29.7358 27.42479,44.49461 0.25804,0.55721 0.86794,0.89476 1.45448,0.58334 z"/></g></svg>